# xmcd CD database file generated by Grip 2.98.7
# 
# Track frame offsets:
#       150
#       19111
#       23036
#       45146
#       73078
#       96283
#       117880
#       140765
#       174835
#       192689
#       217071
#       234845
# 
# Disc length: 3405 secs
# 
# Revision: 3
# Processed by: cddbd v1.4PL0 Copyright (c) Steve Scherf et al.
# Submitted via: Grip 2.98.7
# 
DISCID=a20d4b0c
DTITLE=Kreator - Violent Revolution
DYEAR=2001
DGENRE=Metal
TTITLE0=Reconquering The Throne
TTITLE1=The Patriarch
TTITLE2=Violent Revolution
TTITLE3=All Of The Same Blood (Unity)
TTITLE4=Servant In Heaven - King In Hell
TTITLE5=Second Awakening
TTITLE6=Ghetto War
TTITLE7=Replicas Of Life
TTITLE8=Slave Machinery
TTITLE9=Bitter Sweet Revenge
TTITLE10=Mind On Fire
TTITLE11=System Decay
EXTD=
EXTT0=
EXTT1=
EXTT2=
EXTT3=
EXTT4=
EXTT5=
EXTT6=
EXTT7=
EXTT8=
EXTT9=
EXTT10=
EXTT11=
PLAYORDER=
